<svg xmlns="http://www.w3.org/2000/svg" width="54.572" height="46.766" viewBox="0 0 54.572 46.766"><defs><style>.a{fill:#9fb039;}</style></defs><path class="a" d="M29.542,14.34a12.37,12.37,0,0,1,12.41,12.313,11.844,11.844,0,0,1-.889,4.506l7.246,7.185a29.114,29.114,0,0,0,8.513-11.691A29.389,29.389,0,0,0,19.641,9.907L25,15.229A12.27,12.27,0,0,1,29.542,14.34ZM4.734,7.63,10.4,13.244l1.145,1.133A28.975,28.975,0,0,0,2.25,26.653,29.432,29.432,0,0,0,40.405,43.045l1.047,1.035,7.271,7.185,3.154-3.13L7.876,4.5Zm13.713,13.6L22.3,25.045a6.976,6.976,0,0,0-.195,1.6,7.4,7.4,0,0,0,7.441,7.38,7,7,0,0,0,1.608-.195L35,37.638A12.345,12.345,0,0,1,17.132,26.628,12.165,12.165,0,0,1,18.447,21.233ZM29.14,19.321l7.819,7.758.049-.39a7.4,7.4,0,0,0-7.441-7.38Z" transform="translate(-2.25 -4.5)"/></svg>