<svg xmlns="http://www.w3.org/2000/svg" width="46.766" height="46.766" viewBox="0 0 46.766 46.766"><defs><style>.a{fill:#72c5d5;}</style></defs><path class="a" d="M26.359,3A23.383,23.383,0,1,0,49.766,26.383,23.371,23.371,0,0,0,26.359,3Zm16.2,14.03h-6.9a36.592,36.592,0,0,0-3.227-8.324A18.776,18.776,0,0,1,42.564,17.03ZM26.383,7.77a32.939,32.939,0,0,1,4.466,9.26H21.917A32.939,32.939,0,0,1,26.383,7.77ZM8.285,31.059a18.291,18.291,0,0,1,0-9.353h7.9a38.617,38.617,0,0,0-.327,4.677,38.617,38.617,0,0,0,.327,4.677ZM10.2,35.736h6.9a36.592,36.592,0,0,0,3.227,8.324A18.675,18.675,0,0,1,10.2,35.736ZM17.1,17.03H10.2A18.675,18.675,0,0,1,20.327,8.705,36.592,36.592,0,0,0,17.1,17.03ZM26.383,45a32.939,32.939,0,0,1-4.466-9.26h8.932A32.939,32.939,0,0,1,26.383,45Zm5.472-13.936H20.911a34.4,34.4,0,0,1-.374-4.677,34.1,34.1,0,0,1,.374-4.677H31.854a34.1,34.1,0,0,1,.374,4.677A34.4,34.4,0,0,1,31.854,31.059Zm.585,13a36.592,36.592,0,0,0,3.227-8.324h6.9A18.776,18.776,0,0,1,32.439,44.06Zm4.139-13a38.617,38.617,0,0,0,.327-4.677,38.618,38.618,0,0,0-.327-4.677h7.9a18.291,18.291,0,0,1,0,9.353Z" transform="translate(-3 -3)"/></svg>