<svg xmlns="http://www.w3.org/2000/svg" width="237.707" height="46.766" viewBox="0 0 237.707 46.766"><defs><style>.a{fill:#db2a6f;}.b{fill:#72c5d5;}.c{fill:#9fb039;}</style></defs><g transform="translate(-1273.269 -177.937)"><path class="a" d="M46.122,40.432l-9.106-9.106a2.19,2.19,0,0,0-1.553-.639H33.975a18.988,18.988,0,1,0-3.288,3.288v1.489a2.19,2.19,0,0,0,.639,1.553l9.106,9.106a2.183,2.183,0,0,0,3.1,0l2.585-2.585a2.2,2.2,0,0,0,.009-3.105ZM19,30.687A11.69,11.69,0,1,1,30.687,19,11.684,11.684,0,0,1,19,30.687Z" transform="translate(1273.269 177.937)"/><path class="b" d="M26.359,3A23.383,23.383,0,1,0,49.766,26.383,23.371,23.371,0,0,0,26.359,3Zm16.2,14.03h-6.9a36.592,36.592,0,0,0-3.227-8.324A18.776,18.776,0,0,1,42.564,17.03ZM26.383,7.77a32.939,32.939,0,0,1,4.466,9.26H21.917A32.939,32.939,0,0,1,26.383,7.77ZM8.285,31.059a18.291,18.291,0,0,1,0-9.353h7.9a38.617,38.617,0,0,0-.327,4.677,38.617,38.617,0,0,0,.327,4.677ZM10.2,35.736h6.9a36.592,36.592,0,0,0,3.227,8.324A18.675,18.675,0,0,1,10.2,35.736ZM17.1,17.03H10.2A18.675,18.675,0,0,1,20.327,8.705,36.592,36.592,0,0,0,17.1,17.03ZM26.383,45a32.939,32.939,0,0,1-4.466-9.26h8.932A32.939,32.939,0,0,1,26.383,45Zm5.472-13.936H20.911a34.4,34.4,0,0,1-.374-4.677,34.1,34.1,0,0,1,.374-4.677H31.854a34.1,34.1,0,0,1,.374,4.677A34.4,34.4,0,0,1,31.854,31.059Zm.585,13a36.592,36.592,0,0,0,3.227-8.324h6.9A18.776,18.776,0,0,1,32.439,44.06Zm4.139-13a38.617,38.617,0,0,0,.327-4.677,38.618,38.618,0,0,0-.327-4.677h7.9a18.291,18.291,0,0,1,0,9.353Z" transform="translate(1461.211 174.937)"/><path class="c" d="M29.542,14.34a12.37,12.37,0,0,1,12.41,12.313,11.844,11.844,0,0,1-.889,4.506l7.246,7.185a29.114,29.114,0,0,0,8.513-11.691A29.389,29.389,0,0,0,19.641,9.907L25,15.229A12.27,12.27,0,0,1,29.542,14.34ZM4.734,7.63,10.4,13.244l1.145,1.133A28.975,28.975,0,0,0,2.25,26.653,29.432,29.432,0,0,0,40.405,43.045l1.047,1.035,7.271,7.185,3.154-3.13L7.876,4.5Zm13.713,13.6L22.3,25.045a6.976,6.976,0,0,0-.195,1.6,7.4,7.4,0,0,0,7.441,7.38,7,7,0,0,0,1.608-.195L35,37.638A12.345,12.345,0,0,1,17.132,26.628,12.165,12.165,0,0,1,18.447,21.233ZM29.14,19.321l7.819,7.758.049-.39a7.4,7.4,0,0,0-7.441-7.38Z" transform="translate(1361.944 173.437)"/></g></svg>